PathFileType	4	(X/Y/Z)	C:\Users\°ÂÌØÂü\Desktop\20201223\Trimmed_bx_n_0_901.trc
DataRate	CameraRate	NumFrames	NumMarkers	Units	OrigDataRate	OrigDataStartFrame	OrigNumFrames
50.00	50.00	       4	43	mm	50.00	1	       978
Frame#	Time	Top.Head			R.Acromium			L.Acromium			Sternum			R.ASIS			L.ASIS			V.Sacral			R.Thigh.Upper			R.Thigh.Front			R.Thigh.Rear			R.Knee.Lat			R.Knee.Med			R.Shank.Upper			R.Shank.Front			R.Shank.Rear			R.Ankle.Lat			R.Midfoot.Lat			R.Toe.Lat			R.Toe.Tip			R.Toe.Med			R.Ankle.Med			R.Midfoot.Sup			R.Heel			L.Thigh.Upper			L.Thigh.Front			L.Thigh.Rear			L.Knee.Lat			L.Knee.Med			L.Shank.Upper			L.Shank.Front			L.Shank.Rear			L.Ankle.Lat			L.Midfoot.Lat			L.Toe.Lat			L.Toe.Tip			L.Toe.Med			L.Ankle.Med			L.Midfoot.Sup			L.Heel			origin1 front left			origin2 front right			origin 3 back right			origin 4 back leftt			
		X1	Y1	Z1	X2	Y2	Z2	X3	Y3	Z3	X4	Y4	Z4	X5	Y5	Z5	X6	Y6	Z6	X7	Y7	Z7	X8	Y8	Z8	X9	Y9	Z9	X10	Y10	Z10	X11	Y11	Z11	X12	Y12	Z12	X13	Y13	Z13	X14	Y14	Z14	X15	Y15	Z15	X16	Y16	Z16	X17	Y17	Z17	X18	Y18	Z18	X19	Y19	Z19	X20	Y20	Z20	X21	Y21	Z21	X22	Y22	Z22	X23	Y23	Z23	X24	Y24	Z24	X25	Y25	Z25	X26	Y26	Z26	X27	Y27	Z27	X28	Y28	Z28	X29	Y29	Z29	X30	Y30	Z30	X31	Y31	Z31	X32	Y32	Z32	X33	Y33	Z33	X34	Y34	Z34	X35	Y35	Z35	X36	Y36	Z36	X37	Y37	Z37	X38	Y38	Z38	X39	Y39	Z39	X40	Y40	Z40	X41	Y41	Z41	X42	Y42	Z42	X43	Y43	Z43	

1	0.000	-526.07605	307.98260	1789.20154	-687.49933	77.97131	1533.28210	-703.60175	427.86145	1540.26318	-581.11908	257.97620	1360.45044	-563.98920	135.62784	1044.91333	-539.63745	356.85617	1045.51038	-755.27136	256.57343	1053.51978	-636.73206	82.38946	836.15753	-547.27014	131.71382	806.36255	-650.00562	99.68114	721.15448	-666.01178	118.88676	601.55200	-639.07971	224.83952	559.21960	-691.88867	118.80386	537.99774	-613.33490	167.74211	524.79718	-700.33679	110.42256	487.15692	-690.13171	139.88094	213.32228	-616.03333	79.43609	168.14326	-570.20404	57.56676	165.53752	-494.64487	96.96123	160.80536	-535.82275	149.12851	162.15314	-640.58319	217.56683	219.12238	-597.84198	189.70505	169.51711	-725.75305	205.67773	168.75131	-620.85760	444.13245	859.01221	-539.85822	390.39496	823.26050	-641.87360	433.29077	742.69281	-656.79578	415.16095	605.98901	-643.31335	305.22992	568.40991	-671.80139	418.27490	558.85730	-613.15979	363.91452	535.52209	-723.47327	422.85822	494.45709	-675.60852	420.19553	215.35014	-579.08124	464.96198	165.44121	-540.96942	475.32666	159.25598	-484.32205	420.65909	167.88275	-525.07813	382.78796	177.94778	-646.99225	328.44693	208.35342	-597.54370	346.51370	169.34052	-735.36237	354.13065	161.86218	-443.81482	448.59366	146.57207	-450.47952	75.02163	143.13879	-806.34265	82.21188	141.44829	-800.01788	456.36020	144.69446	
2	0.020	-526.35181	307.84100	1789.28723	-687.69281	77.97252	1533.21155	-703.67224	427.90027	1540.26135	-581.42505	257.97293	1360.43811	-564.24207	135.35909	1045.09033	-539.81720	356.78165	1045.49573	-755.32587	256.62387	1053.32874	-636.76733	82.36875	836.30481	-547.40228	131.84805	806.45105	-650.06665	99.65462	721.36993	-666.03632	118.73706	601.78705	-639.08350	224.77893	559.33356	-691.79584	118.79672	538.02649	-613.23920	167.60490	525.00385	-700.32397	110.38132	487.15680	-690.13196	139.85324	213.29448	-616.02368	79.47605	168.17648	-570.20612	57.59486	165.39537	-494.63242	96.95075	160.87155	-535.81598	149.14044	162.16470	-640.62408	217.57533	219.20067	-597.82654	189.62254	169.44920	-725.73468	205.63646	168.77591	-620.92865	444.22931	859.13525	-539.82660	390.32178	823.26135	-641.75946	433.38361	742.72327	-656.70795	415.16660	605.99591	-643.26404	305.24301	568.32642	-671.75977	418.27469	558.81018	-613.14655	363.89832	535.51709	-723.36261	422.97900	494.55042	-675.56812	420.21832	215.37726	-579.08588	464.94260	165.46249	-541.03308	475.32922	159.29655	-484.28610	420.63818	167.94196	-525.06213	382.72458	177.84108	-646.85138	328.29626	208.49469	-597.55115	346.47430	169.40761	-735.37836	354.05695	161.87299	-443.83246	448.54236	146.64175	-450.45914	75.03083	143.21971	-806.31464	82.22523	141.40309	-800.03632	456.38400	144.70496	
3	0.040	-526.62964	307.70779	1789.37830	-687.89923	77.98026	1533.15088	-703.76801	427.94495	1540.25647	-581.71289	257.99646	1360.41162	-564.47577	135.14922	1045.23840	-539.98132	356.70850	1045.49036	-755.41132	256.68423	1053.17444	-636.79456	82.34978	836.42950	-547.53369	131.97990	806.54919	-650.12903	99.64767	721.59436	-666.05591	118.62243	601.99335	-639.08813	224.71771	559.43835	-691.71338	118.78210	538.05914	-613.15106	167.48741	525.17798	-700.30402	110.33951	487.14722	-690.13104	139.82938	213.27214	-616.01263	79.49609	168.20576	-570.20245	57.62019	165.30231	-494.62521	96.95214	160.91742	-535.80841	149.15137	162.17294	-640.65900	217.58080	219.26106	-597.81012	189.56937	169.40388	-725.72028	205.60576	168.79230	-620.97235	444.29947	859.23413	-539.80353	390.25824	823.26593	-641.66077	433.45236	742.75568	-656.61853	415.17010	606.01599	-643.20734	305.24979	568.27393	-671.72266	418.27509	558.76416	-613.11371	363.88364	535.51794	-723.24664	423.07819	494.61899	-675.53516	420.23801	215.40102	-579.08295	464.91141	165.47253	-541.07269	475.32904	159.33374	-484.26050	420.62106	167.98160	-525.05463	382.67325	177.74420	-646.74762	328.17917	208.61339	-597.56903	346.47510	169.42078	-735.39716	353.99896	161.88570	-443.84912	448.50687	146.70409	-450.44366	75.03597	143.28377	-806.29602	82.23650	141.37317	-800.05035	456.40109	144.71170	
4	0.060	-526.90686	307.59167	1789.47522	-688.12671	78.00196	1533.10669	-703.89539	428.00168	1540.24792	-581.97595	258.06137	1360.36145	-564.68762	135.02762	1045.34766	-540.12030	356.64264	1045.49695	-755.54126	256.76511	1053.07422	-636.81274	82.33275	836.52484	-547.66595	132.11217	806.65857	-650.18475	99.66934	721.82373	-666.06177	118.56387	602.15784	-639.09509	224.66423	559.53815	-691.64404	118.75912	538.09985	-613.07190	167.39903	525.30780	-700.26886	110.29823	487.12885	-690.12628	139.80899	213.26100	-615.99945	79.48890	168.22826	-570.19092	57.63883	165.27838	-494.62259	96.96684	160.93437	-535.80066	149.16217	162.17809	-640.68304	217.58131	219.29178	-597.79340	189.55563	169.38980	-725.71124	205.58913	168.79794	-620.97968	444.33920	859.29718	-539.79584	390.21317	823.27692	-641.58759	433.49033	742.79047	-656.52875	415.17590	606.05359	-643.14465	305.25464	568.26410	-671.69299	418.27603	558.72095	-613.05292	363.87106	535.52991	-723.12885	423.14081	494.65054	-675.51367	420.25165	215.41948	-579.07190	464.86670	165.46455	-541.08319	475.32437	159.36349	-484.24960	420.60864	167.99315	-525.05743	382.63712	177.66125	-646.70294	328.11740	208.69170	-597.61285	346.54181	169.35007	-735.42566	353.96976	161.89929	-443.86133	448.49402	146.75174	-450.43811	75.03469	143.32492	-806.29041	82.24155	141.36601	-800.05493	456.40967	144.71548	
